# xmcd
#
# Track frame offsets: 
#        150
#        18192
#        34882
#        52735
#        68669
#        81637
#        98707
#        114771
#        132630
#        148112
#        164332
#
# Disc length: 2436 seconds
#
# Revision: 0
# Processed by: cddbd v1.5.2PL0 Copyright (c) Steve Scherf et al.
# Submitted via: ExactAudioCopy v1.0b6
#
DISCID=8f09820b
DTITLE=Sunny War - Shell of a Girl
DYEAR=2019
DGENRE=Country
TTITLE0=Shell
TTITLE1=Where the Lost Get Found
TTITLE2=The Place
TTITLE3=Drugs Are Bad
TTITLE4=Love Became Pain
TTITLE5=Off the Cuff
TTITLE6=Soul Tramp
TTITLE7=Rock n Roll Heaven
TTITLE8=Got No Ride
TTITLE9=The Likes of You
TTITLE10=Xo
EXTD=
EXTT0=
EXTT1=
EXTT2=
EXTT3=
EXTT4=
EXTT5=
EXTT6=
EXTT7=
EXTT8=
EXTT9=
EXTT10=
PLAYORDER=
